<svg width="400" height="136" viewBox="0 0 400 136" fill="none" xmlns="http://www.w3.org/2000/svg">
<path d="M14.1191 35.9581L9.29719 30.6321C3.37219 40.7483 0 52.4717 0 64.4158H3.34068C3.34068 53.2596 7.24865 43.1119 14.1191 35.9581Z" fill="url(#paint0_linear_633_2886)"/>
<path d="M13.2682 88.3354C7.21712 82.5997 3.34068 74.8471 3.34068 64.5104V64.4473H0C0 76.5804 2.17458 87.8627 6.42923 97.6952L13.2682 88.3354Z" fill="url(#paint1_linear_633_2886)"/>
<path d="M119.288 55.8123L113.111 62.2097C121.683 62.3358 126.946 68.9538 126.757 77.3997H130.098C130.098 69.0799 126.19 61.4849 119.288 55.8123Z" fill="url(#paint2_linear_633_2886)"/>
<path d="M130.098 77.3997H126.757C126.599 84.3329 122.88 90.1631 114.655 94.5121L123.353 106.488C127.608 98.6721 130.098 89.0601 130.098 77.3997Z" fill="url(#paint3_linear_633_2886)"/>
<path d="M17.6175 54.7093C17.3654 56.0014 17.2393 57.325 17.2393 58.6801C17.2393 78.5658 32.0833 91.2662 50.7722 91.2662C86.3537 91.2662 96.9115 62.1782 112.859 62.1782C112.953 62.1782 113.016 62.1782 113.111 62.1782L119.288 55.7808C111.598 49.4464 100.189 45.4755 86.3537 45.4755C58.1785 45.4755 43.1769 69.0169 30.3814 69.0169C24.8031 69.0169 20.5484 62.9031 20.5484 56.9783C20.5484 56.3481 20.58 55.7808 20.643 55.182L17.5859 54.6778L17.6175 54.7093Z" fill="url(#paint4_linear_633_2886)"/>
<path d="M39.6785 25.5268C60.2583 25.5268 74.535 41.095 92.8773 41.095C114.875 41.095 127.072 30.3801 130.129 9.42286L126.788 8.88711C125.843 14.4337 122.25 21.1148 115.758 21.1148C109.644 21.1148 103.151 15.7573 93.7282 10.5574C84.2735 5.1999 73.432 0 59.9117 0C38.1342 0 19.7919 12.8264 9.36011 30.6637L14.1821 35.9896C20.4222 29.5292 29.1521 25.5268 39.71 25.5268H39.6785Z" fill="url(#paint5_linear_633_2886)"/>
<path d="M61.1723 102.958C45.2568 102.958 25.1181 99.523 13.2996 88.3353L6.46069 97.6952C16.2621 120.26 37.2203 135.197 68.5786 135.197C89.3161 135.197 112.26 126.972 123.353 106.488L114.655 94.5122C104.444 99.9012 87.236 102.958 61.1723 102.958Z" fill="url(#paint6_linear_633_2886)"/>
<path d="M395.147 82.9779H378.443V89.2493H395.147V82.9779Z" fill="#898788"/>
<path d="M400 35.4854H393.035V99.4915H400V35.4854Z" fill="#898788"/>
<path d="M386.858 70.2774H346.423V76.5488H386.858V70.2774Z" fill="#898788"/>
<path d="M369.398 74.4375H362.433V98.7983H369.398V74.4375Z" fill="#898788"/>
<path d="M366.12 64.6994C375.166 64.6994 382.54 58.0814 382.54 50.0767C382.54 42.072 375.166 35.4854 366.12 35.4854C357.075 35.4854 349.701 42.1035 349.701 50.0767C349.701 58.0498 357.075 64.6994 366.12 64.6994ZM366.12 41.5362C371.352 41.5362 375.449 45.3495 375.449 50.0767C375.449 54.8038 371.352 58.6486 366.12 58.6486C360.889 58.6486 356.792 54.8354 356.792 50.0767C356.792 45.318 360.889 41.5362 366.12 41.5362Z" fill="#898788"/>
<path d="M342.2 60.1928H333.155V99.4915H326.19V35.4854H333.155V53.9214H342.2V60.1928Z" fill="#898788"/>
<path d="M319.256 36.872H279.609V43.1434H319.256V36.872Z" fill="#898788"/>
<path d="M312.985 41.0634H306.02V79.3221H312.985V41.0634Z" fill="#898788"/>
<path d="M292.814 41.0634H285.849V79.3221H292.814V41.0634Z" fill="#898788"/>
<path d="M319.95 77.2421H278.916V83.5135H319.95V77.2421Z" fill="#898788"/>
<path d="M184.715 101.193C164.135 101.193 152.726 87.6736 152.726 67.6303C152.726 47.5871 165.049 33.8782 185.093 33.8782C193.098 33.8782 199.779 35.7691 204.948 38.6684L202.773 52.6924C197.888 49.604 192.152 47.1459 185.471 47.1459C174.283 47.1459 168.831 55.4027 168.831 67.5358C168.831 79.6689 174.472 88.3039 185.66 88.3039C189.221 88.3039 191.774 87.6421 194.422 86.2239V74.6581H183.139L181.248 62.7141H208.415V94.3232C201.639 98.7352 193.634 101.193 184.715 101.193Z" fill="#0068B7"/>
<path d="M239.269 100.72C230.539 100.72 223.196 98.8295 216.609 95.8356L218.973 82.0953C225.654 85.6564 233.092 88.1145 239.584 88.1145C244.185 88.1145 247.4 86.1291 247.4 82.2844C247.4 78.4396 245.509 76.9269 236.401 73.4288C223.416 68.4495 217.775 64.2265 217.775 53.48C217.775 40.9687 227.545 34.2877 239.962 34.2877C248.44 34.2877 253.892 35.8949 259.534 38.6052L257.075 52.1564C251.245 48.7528 245.131 46.8935 240.151 46.8935C235.172 46.8935 232.903 48.9734 232.903 51.9673C232.903 55.2449 234.699 56.8521 242.767 59.972C256.886 65.1404 262.528 70.0252 262.528 80.3935C262.528 94.512 252.19 100.72 239.3 100.72" fill="#0068B7"/>
<defs>
<linearGradient id="paint0_linear_633_2886" x1="16.0416" y1="37.7859" x2="-3.68654" y2="57.5464" gradientUnits="userSpaceOnUse">
<stop stop-color="#FABE00"/>
<stop offset="1" stop-color="#C8C400"/>
</linearGradient>
<linearGradient id="paint1_linear_633_2886" x1="-4.22312" y1="71.9478" x2="12.7002" y2="88.8718" gradientUnits="userSpaceOnUse">
<stop stop-color="#C8C400"/>
<stop offset="1" stop-color="#7FBE26"/>
</linearGradient>
<linearGradient id="paint2_linear_633_2886" x1="115.884" y1="59.3419" x2="130.286" y2="73.7446" gradientUnits="userSpaceOnUse">
<stop stop-color="#7ECEF4"/>
<stop offset="1" stop-color="#00B3C4"/>
</linearGradient>
<linearGradient id="paint3_linear_633_2886" x1="133.123" y1="83.8602" x2="118.595" y2="98.389" gradientUnits="userSpaceOnUse">
<stop stop-color="#00B3C4"/>
<stop offset="1" stop-color="#009E96"/>
</linearGradient>
<linearGradient id="paint4_linear_633_2886" x1="24.3934" y1="68.4181" x2="112.859" y2="68.4181" gradientUnits="userSpaceOnUse">
<stop stop-color="#0068B7"/>
<stop offset="1" stop-color="#7ECEF4"/>
</linearGradient>
<linearGradient id="paint5_linear_633_2886" x1="9.29708" y1="20.516" x2="130.098" y2="20.516" gradientUnits="userSpaceOnUse">
<stop stop-color="#FABE00"/>
<stop offset="0.63" stop-color="#F08000"/>
<stop offset="1" stop-color="#EB6100"/>
</linearGradient>
<linearGradient id="paint6_linear_633_2886" x1="13.2681" y1="111.751" x2="114.655" y2="111.751" gradientUnits="userSpaceOnUse">
<stop stop-color="#7FBE26"/>
<stop offset="1" stop-color="#009E96"/>
</linearGradient>
</defs>
</svg>
