<svg width="110" height="113" viewBox="0 0 110 113" fill="none" xmlns="http://www.w3.org/2000/svg">
<g clip-path="url(#clip0_1492_2249)">
<path d="M4.89922 8.99346C9.65739 8.40288 14.4706 8.22771 19.2588 8.46794C20.0893 8.50798 21.075 8.66313 21.4302 9.41887C21.6904 9.96941 21.4903 10.615 21.2801 11.1856C19.1587 17.0814 16.7221 22.867 13.9853 28.5076C13.8402 28.8079 13.6801 29.1232 13.3999 29.2983C12.9546 29.5786 12.3692 29.4235 11.8689 29.2583C10.4329 28.7878 8.99695 28.3124 7.56099 27.8419C7.22076 27.7318 6.85052 27.5917 6.68541 27.2764C6.48528 26.896 6.6754 26.4355 6.86052 26.0452C7.91122 23.863 8.96192 21.6809 10.0126 19.4987C10.1977 19.1134 10.3929 18.6829 10.2828 18.2675C10.1777 17.8671 9.81749 17.5869 9.44224 17.4117C8.09635 16.7861 6.53531 17.1915 5.05933 17.3566C3.58334 17.5218 1.80216 17.2716 1.13672 15.9453C0.211101 14.0935 2.23745 11.8012 1.45193 9.88433" fill="#F25844"/>
<path d="M4.8992 9.74419C7.40086 9.43889 9.91253 9.23869 12.4342 9.15861C13.6951 9.11857 14.9559 9.10856 16.2117 9.12358C17.3725 9.13859 18.5933 9.08854 19.7441 9.25871C20.0843 9.30876 20.5696 9.38884 20.7397 9.72917C20.9749 10.1846 20.5896 10.9003 20.4345 11.3257C20.0093 12.4969 19.574 13.663 19.1237 14.8242C18.2181 17.1614 17.2674 19.4837 16.2618 21.776C15.7614 22.9171 15.2511 24.0532 14.7257 25.1843C14.2354 26.2504 13.8001 27.4315 13.1797 28.4225C12.8895 28.8829 12.3842 28.6327 11.9489 28.4925C11.3435 28.2974 10.7381 28.0972 10.1327 27.897C9.5673 27.7118 8.99692 27.5266 8.43155 27.3364C8.15136 27.2463 7.85116 27.1713 7.58098 27.0561C7.3108 26.941 7.32581 26.866 7.42088 26.5857C7.82615 25.4446 8.49659 24.3435 9.01694 23.2524C9.53728 22.1613 10.1177 21.0052 10.643 19.8691C11.0983 18.8931 11.2584 17.8571 10.3328 17.0964C9.52728 16.4357 8.39653 16.2756 7.38585 16.3206C5.87985 16.3857 2.46758 17.4868 1.71708 15.4348C1.40187 14.5689 1.84216 13.5429 2.06231 12.7071C2.32749 11.7161 2.52262 10.6701 2.15237 9.67912C1.82215 8.78325 0.366183 9.16862 0.706409 10.0795C1.04664 10.9904 0.721419 11.9163 0.476256 12.8172C0.216083 13.7631 -0.0340835 14.7841 0.246103 15.7551C0.836496 17.8071 3.17805 18.2976 5.03929 18.0974C6.21007 17.9722 7.4609 17.6219 8.63168 17.9172C9.19205 18.0573 9.66737 18.2575 9.44722 18.8931C9.21207 19.5688 8.8168 20.2144 8.5066 20.8601C7.9112 22.0963 7.31581 23.3325 6.72041 24.5687C6.2601 25.5246 5.3445 26.8609 6.18005 27.8669C6.51027 28.2673 6.98559 28.4375 7.4609 28.5977C8.14136 28.8229 8.82181 29.0431 9.50226 29.2683C10.1427 29.4785 10.7881 29.6937 11.4285 29.9039C12.0039 30.0941 12.6193 30.2893 13.2297 30.1542C14.4005 29.8989 14.7958 28.5276 15.2461 27.5767C15.8315 26.3404 16.4069 25.1042 16.9622 23.853C18.073 21.3706 19.1237 18.8681 20.1193 16.3406C20.6347 15.0344 21.135 13.7181 21.6203 12.3968C22.0106 11.3257 22.636 10.0645 22.0256 8.95842C21.4152 7.85233 20.0943 7.75224 19.0036 7.69718C17.4626 7.62211 15.9165 7.59208 14.3705 7.60709C11.1984 7.63212 8.03128 7.84733 4.88419 8.23271C3.93856 8.34782 3.92355 9.84929 4.88419 9.73418L4.8992 9.74419Z" fill="black"/>
<path d="M27.9646 4.51908C27.8845 13.3327 27.8095 22.1463 27.7294 30.965C27.7294 31.3303 27.7294 31.7257 27.9596 32.011C28.2598 32.3914 28.8202 32.4214 29.3105 32.4164C30.8815 32.4064 32.4476 32.3964 34.0186 32.3814C34.4439 32.3814 34.9042 32.3613 35.2344 32.1011C35.6997 31.7357 35.7298 31.0551 35.7247 30.4645C35.6897 27.972 35.6597 25.4796 35.6247 22.9872C35.6197 22.4767 35.6147 21.9411 35.8348 21.4807C36.5703 19.9442 38.8618 20.3646 40.4129 19.6739C41.6237 19.1334 42.3942 17.752 42.2191 16.4357C42.044 15.1195 40.9382 13.9883 39.6273 13.7831C38.1764 13.5579 36.3302 14.2336 35.4546 13.0574C35.0943 12.572 35.0643 11.9213 35.0343 11.3157C34.9092 8.7282 34.559 6.14567 33.9836 3.61819C33.8785 3.16775 33.7534 2.69229 33.4132 2.38198C32.2324 1.32094 30.2411 3.29788 28.8552 2.51712" fill="#F25844"/>
<path d="M27.2141 4.51907C27.159 11.0054 27.099 17.4918 27.0439 23.9781L26.9989 28.968C26.9889 30.1191 26.6086 31.981 27.6944 32.7717C28.1397 33.0971 28.69 33.1571 29.2304 33.1671C30.081 33.1821 30.9365 33.1571 31.7921 33.1521C32.5376 33.1471 33.2781 33.1521 34.0236 33.1371C34.639 33.1271 35.2894 33.067 35.7697 32.6366C36.8004 31.7157 36.4702 29.949 36.4552 28.7278C36.4352 27.1512 36.4152 25.5697 36.3952 23.9931C36.3852 23.3275 36.225 22.4316 36.5252 21.811C36.7304 21.3856 37.1557 21.2154 37.5859 21.0953C38.5416 20.83 39.5523 20.82 40.4879 20.4597C42.7094 19.6089 43.74 16.8111 42.3941 14.7891C41.7287 13.7882 40.678 13.1375 39.4822 13.0174C38.5316 12.9223 37.3208 13.2927 36.4302 12.8923C35.7547 12.592 35.8248 11.6911 35.7898 11.0755C35.7397 10.1846 35.6697 9.29876 35.5696 8.41289C35.3745 6.6862 35.1193 4.93949 34.684 3.25283C34.3688 2.03664 33.5232 1.18581 32.2124 1.33596C31.677 1.40102 31.1767 1.5812 30.6663 1.73635C30.2411 1.86648 29.6857 2.08669 29.2504 1.86648C28.3898 1.43605 27.6293 2.73232 28.4949 3.16275C29.3605 3.59317 30.2461 3.43802 31.1367 3.16275C31.7871 2.95754 32.8078 2.42202 33.143 3.31289C33.6183 4.57413 33.7534 6.0756 33.9435 7.4069C34.1487 8.84331 34.2137 10.2847 34.3288 11.7261C34.4238 12.8673 34.8541 13.8983 35.9899 14.3237C36.9455 14.679 37.9962 14.4738 38.9819 14.4888C39.9675 14.5039 40.9282 15.0093 41.3435 15.9753C41.7587 16.9412 41.3985 18.0473 40.623 18.6829C39.192 19.8591 36.9205 19.0783 35.5946 20.5398C34.709 21.5157 34.8842 22.8971 34.9042 24.1133C34.9242 25.6097 34.9442 27.1012 34.9642 28.5977C34.9742 29.2783 34.9992 29.964 34.9892 30.6447C34.9792 31.2653 34.8842 31.5906 34.2187 31.6256C32.7627 31.7057 31.2818 31.6456 29.8208 31.6607C29.4355 31.6607 28.61 31.8308 28.5049 31.3303C28.3698 30.6897 28.5049 29.8689 28.5099 29.2133L28.5499 24.7239C28.61 17.9873 28.67 11.2507 28.7301 4.51907C28.7401 3.55313 27.2391 3.55313 27.2291 4.51907H27.2141Z" fill="black"/>
<path d="M19.529 39.7636C18.6234 39.5083 17.7828 40.2941 17.1874 41.0248C16.0016 42.4763 14.8659 44.0628 14.5306 45.9096C13.8602 49.5832 17.1574 53.427 20.8949 53.3619C24.6324 53.2968 27.7895 49.413 27.144 45.7344C26.4986 42.0558 22.2608 39.4833 18.6834 40.5544" fill="#F25844"/>
<path d="M19.7291 39.0429C17.9079 38.6625 16.7171 40.3542 15.7614 41.6404C14.7157 43.0468 13.8552 44.6484 13.7051 46.4251C13.4549 49.383 15.4512 52.3359 18.113 53.5221C20.9749 54.7933 24.2271 53.8374 26.1834 51.445C28.1397 49.0527 28.605 45.8095 26.9239 43.1869C25.2427 40.5644 21.6504 38.9378 18.4782 39.8387C17.5526 40.1039 17.9429 41.5503 18.8785 41.2851C21.08 40.6595 23.4566 41.4853 24.9976 43.1319C26.6387 44.8836 26.8938 47.381 25.7281 49.4681C24.5623 51.5551 22.4009 52.9365 20.0643 52.5611C17.7277 52.1858 15.7815 50.1888 15.2911 47.9016C14.9809 46.4601 15.4112 45.0438 16.1317 43.7875C16.552 43.0568 17.0523 42.3711 17.5827 41.7155C17.9679 41.235 18.6083 40.3341 19.3288 40.4843C20.2694 40.6795 20.6747 39.2331 19.7291 39.0379V39.0429Z" fill="black"/>
<path d="M48.0379 4.99453C47.8078 10.9604 47.5826 16.9212 47.3525 22.8871C47.3325 23.3875 47.3275 23.9381 47.6477 24.3285C48.0079 24.7689 48.6433 24.834 49.2137 24.859C53.1814 25.0642 57.159 25.1292 61.1316 25.0642C61.7571 25.0542 62.4425 25.0191 62.9178 24.6137C63.5232 24.0982 63.5683 23.1974 63.5683 22.4016C63.5683 20.6499 63.5683 18.8931 63.5683 17.1414C63.5683 16.746 63.5533 16.3056 63.2731 16.0253C62.9879 15.7401 62.5426 15.725 62.1423 15.73C59.8858 15.7451 57.6293 15.7651 55.3728 15.7801C54.9425 15.7801 54.4672 15.7701 54.152 15.4798C53.8018 15.1595 53.7768 14.624 53.7818 14.1435C53.7918 10.8753 53.8018 7.6121 53.8118 4.3439C53.8118 3.90847 53.8068 3.44802 53.5616 3.08767C53.0663 2.36696 51.9806 2.50209 51.13 2.72231C50.2194 2.95754 49.3138 3.19277 48.4032 3.428" fill="#8D82F7"/>
<path d="M47.2874 4.99453C47.0772 10.4198 46.8721 15.8452 46.662 21.2705C46.6219 22.3415 46.3318 23.7679 46.9972 24.7038C47.6176 25.5747 48.7434 25.5847 49.704 25.6347C52.4308 25.7649 55.1626 25.8349 57.8944 25.8399C59.1503 25.8399 60.4411 25.905 61.697 25.7899C62.7527 25.6948 63.6583 25.2444 64.0635 24.2134C64.4688 23.1823 64.3187 22.0162 64.3187 20.9652C64.3187 19.6889 64.3337 18.4127 64.3187 17.1364C64.3037 16.0854 63.9034 15.1795 62.7627 15.0093C61.5469 14.8342 60.221 14.9843 58.9952 14.9943C57.7694 15.0043 56.4485 15.0744 55.1826 15.0193C54.9675 15.0093 54.7323 15.0193 54.5972 14.8342C54.4822 14.669 54.5272 14.3287 54.5222 14.1385C54.5172 13.4428 54.5222 12.7521 54.5272 12.0564C54.5272 10.585 54.5372 9.11857 54.5422 7.64713C54.5422 6.87137 54.5422 6.09561 54.5472 5.31985C54.5472 4.68923 54.6123 4.01357 54.4722 3.39296C53.8518 0.590218 49.9041 2.25685 48.188 2.69728C47.2524 2.93752 47.6476 4.38894 48.5883 4.1437C49.6289 3.87343 50.6746 3.53811 51.7303 3.34792C52.0305 3.29286 52.5109 3.20778 52.786 3.38295C53.1513 3.61318 53.0512 4.20876 53.0512 4.57912C53.0512 6.94644 53.0362 9.31376 53.0312 11.6861C53.0312 12.7521 52.8911 13.9183 53.0912 14.9693C53.2764 15.9453 54.0419 16.4508 54.9925 16.5108C56.1133 16.5859 57.264 16.5058 58.3898 16.4958C59.5155 16.4858 60.7263 16.4758 61.8971 16.4708C62.2523 16.4708 62.7377 16.3456 62.8077 16.7861C62.8878 17.3166 62.8177 17.9122 62.8177 18.4477C62.8177 19.6038 62.8177 20.76 62.8177 21.9161C62.8177 22.6268 62.9878 23.878 62.1423 24.1883C61.747 24.3335 61.2917 24.3034 60.8764 24.3134C60.216 24.3235 59.5505 24.3285 58.8901 24.3335C56.4885 24.3435 54.0869 24.3034 51.6903 24.2134C51.155 24.1933 50.6146 24.1733 50.0792 24.1483C49.5889 24.1233 49.0235 24.1683 48.5532 24.0182C48.0829 23.868 48.0929 23.5077 48.0979 23.0722C48.1029 22.4716 48.143 21.8661 48.168 21.2655C48.3781 15.8402 48.5833 10.4148 48.7934 4.98953C48.8284 4.02358 47.3274 4.02358 47.2924 4.98953L47.2874 4.99453Z" fill="black"/>
<path d="M67.8861 1.61123C66.7804 9.47893 66.205 17.4217 66.175 25.3645C66.175 25.6548 66.175 25.9601 66.3201 26.2103C66.5452 26.6057 67.0406 26.7508 67.4859 26.8559C68.9618 27.2063 70.5029 27.5566 71.9788 27.2113C73.4548 26.866 74.8307 25.5797 74.7407 24.0632C74.6706 22.8821 73.8601 21.4156 74.8057 20.7049C75.6113 20.0993 76.697 20.8651 77.6926 21.0152C79.8991 21.3456 81.26 18.4677 80.9198 16.2606C80.7597 15.2296 80.3144 14.1335 79.3788 13.673C77.8978 12.9423 75.6413 13.9683 74.7157 12.602C74.3304 12.0314 74.4005 11.2757 74.4855 10.59C74.7857 8.23271 75.0809 5.8754 75.3811 3.51809C75.4512 2.94753 75.5062 2.31191 75.156 1.85647C74.8257 1.43105 74.2454 1.31093 73.715 1.23586C72.1289 1.01564 70.5229 0.975603 68.9268 1.11074" fill="#8D82F7"/>
<path d="M67.1656 1.41603C66.3151 7.48698 65.7647 13.593 65.5396 19.719C65.4845 21.2354 65.4495 22.7469 65.4345 24.2634C65.4195 25.4996 65.2844 26.8009 66.6253 27.3714C67.2057 27.6167 67.8511 27.7268 68.4665 27.8469C69.232 28.0021 70.0225 28.1222 70.8081 28.1072C72.0489 28.0821 73.2097 27.7168 74.1653 26.911C74.9858 26.2153 75.5512 25.1593 75.5012 24.0682C75.4762 23.5177 75.3261 22.9872 75.211 22.4516C75.1309 22.0813 74.9208 21.3305 75.4662 21.2304C75.9815 21.1353 76.6419 21.5357 77.1273 21.6609C77.6426 21.791 78.168 21.836 78.6883 21.7209C79.6039 21.5157 80.3344 20.8701 80.8397 20.0993C81.9455 18.4077 82.0805 15.8752 80.9598 14.1535C80.3444 13.2076 79.4238 12.7571 78.3231 12.652C77.5225 12.577 76.1816 12.9073 75.5062 12.3617C75.0559 11.9964 75.166 11.2807 75.221 10.7802C75.3161 9.90434 75.4411 9.02848 75.5512 8.15263C75.7613 6.48599 76.0666 4.80435 76.1816 3.13271C76.2817 1.66627 75.4311 0.750378 74.0152 0.530162C72.3341 0.269907 70.6279 0.229868 68.9368 0.365001C67.9812 0.440074 67.9712 1.94655 68.9368 1.86647C70.2927 1.75636 71.6536 1.76137 73.0095 1.90151C73.4148 1.94154 74.1903 1.93654 74.5155 2.25685C74.9008 2.63723 74.6356 3.53811 74.5756 4.00356C74.4054 5.34488 74.2353 6.68619 74.0652 8.0275C73.9101 9.2487 73.5649 10.59 73.695 11.8212C73.795 12.7922 74.3604 13.593 75.296 13.9183C76.1566 14.2236 77.1022 14.0884 77.9928 14.1285C79.0035 14.1735 79.6639 14.619 79.9942 15.5999C80.2844 16.4608 80.2894 17.3717 80.0392 18.2475C79.8291 18.9582 79.4288 19.744 78.7433 20.1093C77.8928 20.5648 77.0422 19.9892 76.1966 19.814C75.186 19.5988 74.0802 19.9292 73.72 20.9952C73.3898 21.9712 73.8651 22.9371 73.9802 23.9031C74.0952 24.869 73.4398 25.7248 72.5942 26.1903C71.5035 26.7859 70.1576 26.6608 68.9818 26.4305C68.4265 26.3204 67.791 26.2403 67.2657 26.0251C66.7403 25.8099 66.9305 25.0191 66.9305 24.5136C66.9405 23.1623 66.9705 21.811 67.0155 20.4597C67.2157 14.2236 67.746 7.99748 68.6116 1.81642C68.6666 1.41102 68.5115 1.01564 68.0862 0.890515C67.736 0.790417 67.2207 1.01564 67.1606 1.41603H67.1656Z" fill="black"/>
<path d="M68.4515 36.8057C63.248 37.0009 58.0496 37.1961 52.8461 37.3913C52.4508 37.4063 52.0256 37.4363 51.7354 37.7016C51.4602 37.9568 51.3901 38.3522 51.3351 38.7226C50.8198 42.2811 50.6747 45.8896 50.8998 49.4781C50.9248 49.8685 50.9648 50.2939 51.225 50.5892C51.5402 50.9546 52.0756 51.0146 52.5559 51.0446C57.224 51.365 61.8921 51.6853 66.5602 52.0056C67.1056 52.0406 67.701 52.0656 68.1463 51.7503C68.7567 51.3199 68.8317 50.4641 68.8517 49.7183C68.9618 45.3991 69.0719 41.0849 69.182 36.7657" fill="#8D82F7"/>
<path d="M68.4515 36.055C63.9085 36.2251 59.3705 36.3953 54.8274 36.5655C53.8768 36.6005 52.721 36.4654 51.8104 36.8007C50.8398 37.161 50.6647 38.097 50.5396 39.0078C50.2394 41.22 50.0693 43.4472 50.0443 45.6794C50.0343 46.7805 50.0543 47.8865 50.1143 48.9876C50.1643 49.9135 50.2094 50.9395 51.11 51.455C51.9355 51.9305 53.1013 51.8304 54.0219 51.8955C55.1276 51.9705 56.2334 52.0456 57.3391 52.1257C59.5906 52.2808 61.8421 52.436 64.0936 52.5912C65.1393 52.6612 66.24 52.8464 67.2907 52.7713C68.1313 52.7113 68.8618 52.3309 69.247 51.5551C69.7023 50.6292 69.6023 49.4781 69.6273 48.4771C69.6623 47.1909 69.6923 45.9046 69.7274 44.6183C69.7924 42.0058 69.8625 39.3882 69.9275 36.7757C69.9525 35.8097 68.4515 35.8097 68.4265 36.7757C68.3264 40.7996 68.2214 44.8286 68.1213 48.8525C68.1063 49.4581 68.2514 50.4991 67.8411 51.0196C67.3908 51.5852 65.9398 51.2198 65.3344 51.1748C63.3681 51.0396 61.4018 50.9045 59.4405 50.7694C57.4792 50.6342 55.5079 50.4991 53.5466 50.364C53.1613 50.3389 52.7661 50.3339 52.3808 50.2839C51.9355 50.2238 51.7454 50.1438 51.6703 49.6783C51.5052 48.6673 51.5603 47.5612 51.5553 46.5402C51.5453 44.5783 51.6403 42.6214 51.8505 40.6695C51.8955 40.2641 51.9405 39.8587 51.9956 39.4533C52.0306 39.173 52.0206 38.4623 52.2557 38.2521C52.4759 38.0519 53.0913 38.137 53.3515 38.127L55.0876 38.0619C59.5456 37.8968 64.0036 37.7266 68.4615 37.5614C69.4222 37.5264 69.4272 36.0249 68.4615 36.06L68.4515 36.055Z" fill="black"/>
<path d="M96.3251 7.45695C94.5889 6.94645 92.6626 7.73222 91.4018 9.0335C90.1409 10.3348 89.4405 12.0715 88.9151 13.8082C88.4498 15.3447 88.1246 17.1114 88.9702 18.4777C89.4255 19.2085 90.166 19.724 90.9515 20.0693C94.2437 21.5107 98.5515 19.8541 100.023 16.5759C101.493 13.2977 99.8774 8.97344 96.6153 7.46696" fill="#5CC848"/>
<path d="M96.5252 6.73123C93.183 5.84036 90.3411 8.40287 89.0602 11.2557C87.8594 13.9333 86.6136 17.8521 89.3854 19.9992C91.6219 21.7309 94.794 21.6609 97.2357 20.4347C99.6773 19.2085 101.233 16.8712 101.328 14.1785C101.433 11.1756 99.7373 8.11759 97.0055 6.81131C96.1399 6.3959 95.3744 7.69217 96.25 8.10758C100.173 9.98442 101.158 15.7 97.6059 18.4427C95.9398 19.729 93.6333 20.2094 91.6269 19.5188C90.4411 19.1134 89.4305 18.2875 89.2403 16.9913C89.0502 15.695 89.5055 14.3887 89.9058 13.2026C90.7914 10.62 92.9128 7.31681 96.1349 8.17765C97.0705 8.42789 97.4658 6.98148 96.5352 6.73123H96.5252Z" fill="black"/>
<path d="M80.2043 26.3354C88.3598 27.0962 96.6053 26.866 104.706 25.6548C105.091 25.5947 105.506 25.5447 105.851 25.7248C106.377 26.0101 106.487 26.7008 106.537 27.2964C106.647 28.6177 106.737 30.0391 106.052 31.1752C104.936 33.037 102.379 33.2622 100.208 33.2772C93.7283 33.3273 87.249 33.3723 80.7697 33.4224C80.0392 33.4274 79.2687 33.4224 78.6483 33.037C77.1023 32.0761 77.6176 29.7338 78.3181 28.0521" fill="#5CC848"/>
<path d="M80.2043 27.0862C84.6073 27.4916 89.0352 27.6167 93.4582 27.4515C95.7097 27.3664 97.9562 27.2063 100.198 26.9761C101.283 26.861 102.364 26.7308 103.445 26.5857C103.96 26.5156 104.48 26.4155 105.001 26.3655C105.486 26.3204 105.636 26.4355 105.731 26.916C106.047 28.4825 106.062 30.6497 104.591 31.6356C103.305 32.5015 101.574 32.5115 100.083 32.5265C95.5545 32.5665 91.0315 32.5966 86.5035 32.6266C85.2577 32.6366 84.0119 32.6466 82.766 32.6566C82.1406 32.6566 81.5202 32.6666 80.8948 32.6716C80.3995 32.6716 79.8641 32.7067 79.3838 32.5515C77.6376 31.981 78.5683 29.4084 79.0436 28.2523C79.4088 27.3564 77.9578 26.9711 77.5976 27.8519C76.9922 29.3284 76.4468 31.3203 77.3674 32.7868C78.5582 34.6886 81.3751 34.1681 83.2664 34.1531C88.3748 34.1131 93.4832 34.078 98.5916 34.038C100.498 34.023 102.559 34.1431 104.37 33.4224C106.297 32.6566 107.292 31.04 107.362 28.988C107.392 28.0521 107.392 26.906 107.032 26.0251C106.622 25.0292 105.706 24.7639 104.706 24.899C102.229 25.2294 99.7573 25.5497 97.2657 25.7349C91.5869 26.1603 85.8831 26.1052 80.2093 25.5797C79.2487 25.4896 79.2537 26.9911 80.2093 27.0812L80.2043 27.0862Z" fill="black"/>
<path d="M82.8511 39.178C81.7954 44.1329 81.4001 49.2329 81.6803 54.2928C81.7003 54.6732 81.7354 55.0836 81.9755 55.3789C82.3258 55.8243 82.9762 55.8594 83.5466 55.8594C89.0402 55.8594 94.5289 55.8594 100.023 55.8594C100.423 55.8594 100.858 55.8493 101.183 55.6141C101.664 55.2638 101.714 54.5781 101.719 53.9875C101.729 52.9015 101.739 51.8204 101.754 50.7343C101.754 50.3439 101.754 49.9235 101.534 49.5982C101.168 49.0627 100.413 49.0277 99.7674 49.0277C95.9048 49.0427 92.0472 48.5172 88.3297 47.4711C87.8394 47.336 87.3091 47.1508 87.0689 46.7004C86.8638 46.315 86.9438 45.8445 87.0289 45.4141C87.254 44.263 87.4792 43.1069 87.7043 41.9557C87.9395 40.7496 88.1546 39.4032 87.4942 38.3672C86.8338 37.3312 84.9175 37.1761 84.5572 38.3522" fill="#5CC848"/>
<path d="M82.1256 38.9778C81.5702 41.6004 81.19 44.263 80.9948 46.9356C80.8998 48.2569 80.8447 49.5882 80.8397 50.9145C80.8347 52.2408 80.7697 53.5921 80.9848 54.8784C81.1699 55.9995 82.0305 56.52 83.1012 56.6001C84.3971 56.7002 85.728 56.6151 87.0288 56.6151C89.8157 56.6151 92.6026 56.6151 95.3894 56.6151C96.7603 56.6151 98.1362 56.6151 99.5071 56.6151C100.643 56.6151 101.809 56.545 102.264 55.3238C102.639 54.3229 102.464 53.0616 102.474 52.0156C102.484 50.9696 102.714 49.6182 101.834 48.8425C101.023 48.1218 99.7773 48.2919 98.7817 48.2719C97.4558 48.2469 96.1299 48.1568 94.809 48.0017C93.4881 47.8465 92.1523 47.6213 90.8464 47.331C90.216 47.1909 89.5906 47.0407 88.9701 46.8756C88.5499 46.7604 87.7593 46.6854 87.6643 46.1699C87.6142 45.8996 87.7393 45.5342 87.7944 45.269C87.8644 44.9236 87.9294 44.5783 87.9995 44.233C88.1396 43.5073 88.2847 42.7816 88.4248 42.0558C88.6599 40.8346 88.8501 39.5184 88.3097 38.3472C87.4891 36.5755 84.5872 36.075 83.8117 38.152C83.4765 39.0579 84.9274 39.4483 85.2577 38.5524C85.4328 38.0769 86.2583 38.3022 86.5535 38.4974C87.289 38.9928 87.204 40.174 87.0989 40.9397C86.9588 41.9858 86.7036 43.0268 86.5035 44.0628C86.3234 44.9737 85.9231 46.0998 86.3584 46.9907C86.7587 47.8065 87.6393 48.0717 88.4548 48.2919C89.5805 48.5972 90.7163 48.8575 91.8671 49.0677C94.1086 49.4781 96.3851 49.7183 98.6616 49.7684C99.277 49.7834 100.858 49.4781 100.978 50.3389C101.048 50.8344 100.978 51.395 100.973 51.8955C100.968 52.476 100.963 53.0566 100.953 53.6372C100.953 53.9875 101.008 54.438 100.863 54.7683C100.663 55.2337 100.058 55.1086 99.6272 55.1086C98.4214 55.1086 97.2156 55.1086 96.0098 55.1086C93.6382 55.1086 91.2667 55.1086 88.8951 55.1086C87.6893 55.1086 86.4835 55.1086 85.2777 55.1086C84.6973 55.1086 84.1119 55.1136 83.5315 55.1086C83.1563 55.1086 82.6459 55.1537 82.4808 54.7533C82.2807 54.2578 82.3757 53.492 82.3607 52.9615C82.3407 52.3159 82.3307 51.6753 82.3307 51.0296C82.3307 49.7434 82.3808 48.4571 82.4658 47.1708C82.6459 44.5483 83.0162 41.9457 83.5615 39.3732C83.7617 38.4323 82.3157 38.0269 82.1156 38.9728L82.1256 38.9778Z" fill="black"/>
<path d="M3.91856 68.717C10.1627 68.1764 16.4369 67.9812 22.7011 68.1264C23.5266 68.1464 24.5523 68.3116 24.8025 69.0973C24.9475 69.5478 24.7624 70.0332 24.5823 70.4737C23.1464 73.9471 21.7104 77.4255 20.2794 80.8989C19.9342 81.7397 19.584 82.7006 19.9642 83.5315C20.2194 84.087 20.7548 84.4574 21.2601 84.7977C22.3358 85.5184 23.4065 86.2391 24.4822 86.9548C25.608 87.7105 26.7788 88.5113 27.4442 89.6925C28.1097 90.8736 28.0846 92.5653 27.0239 93.4111C24.4072 91.8997 21.7854 90.3932 19.1687 88.8817C18.8485 88.6965 18.4983 88.5063 18.128 88.5264C17.1824 88.5864 16.9122 89.8076 16.607 90.7035C15.5513 93.8265 10.6781 94.6774 8.62669 92.0948C11.7788 86.6395 14.3305 80.8338 16.2167 74.8229C12.9746 75.1332 9.72743 75.4485 6.48527 75.7588C5.69474 75.8339 4.86919 75.904 4.13371 75.6087C1.91223 74.7028 2.1774 71.5047 2.83784 69.1974" fill="#75C1E1"/>
<path d="M3.91859 69.4677C7.45094 69.1624 10.9933 68.9672 14.5356 68.8821C16.2668 68.8421 17.998 68.8221 19.7291 68.8321C20.5947 68.8371 21.4603 68.8471 22.3258 68.8671C22.7661 68.8771 23.6717 68.802 24.0019 69.1924C24.3522 69.6078 23.6517 70.7639 23.4866 71.1744C23.1414 72.0052 22.8011 72.836 22.4559 73.6668C21.8005 75.2534 21.145 76.8399 20.4896 78.4265C20.1794 79.1822 19.8592 79.9379 19.554 80.6937C19.2488 81.4494 18.9786 82.2152 19.0687 83.031C19.2388 84.5875 20.7198 85.3332 21.8855 86.114C23.3265 87.0799 24.9976 87.9658 26.1884 89.2471C27.084 90.208 27.6394 91.8796 26.4886 92.8756L27.3992 92.7605C25.593 91.7195 23.7918 90.6785 21.9856 89.6424C21.12 89.142 20.2645 88.6114 19.3789 88.141C18.6934 87.7806 17.9229 87.6155 17.2324 88.0559C16.0917 88.7866 16.1918 90.3381 15.4312 91.3391C14.7608 92.22 13.6551 92.7305 12.5743 92.8456C11.2735 92.9857 9.99763 92.5853 9.15707 91.5643L9.27215 92.4752C12.4493 86.9548 15.026 81.0991 16.9423 75.0231C17.0773 74.5927 16.6971 74.0271 16.2168 74.0722C14.3505 74.2524 12.4843 74.4325 10.618 74.6127L7.94126 74.873C7.06568 74.9581 6.17008 75.1032 5.28449 75.0782C2.41258 74.9981 3.043 71.2344 3.55835 69.4026C3.81852 68.4717 2.37256 68.0713 2.11238 69.0022C1.44694 71.3796 1.01666 75.1332 3.84354 76.2994C4.72412 76.6647 5.67475 76.5947 6.60537 76.5046C7.66108 76.4045 8.71177 76.2994 9.76748 76.1993C11.9189 75.9941 14.0653 75.7839 16.2168 75.5787L15.4913 74.6277C13.61 80.5836 11.0934 86.3092 7.97629 91.7195C7.79617 92.0298 7.87622 92.3651 8.09136 92.6304C9.73245 94.6223 12.7545 94.8125 14.9409 93.6564C16.0366 93.0758 16.8772 92.1349 17.3025 90.9737C17.4526 90.5633 17.6027 89.5023 18.068 89.3021C18.3532 89.182 18.7685 89.5223 18.9986 89.6525C19.4589 89.9177 19.9192 90.183 20.3795 90.4482C22.4659 91.6494 24.5523 92.8556 26.6437 94.0568C26.9489 94.2319 27.2991 94.1619 27.5543 93.9417C28.615 93.0258 28.8502 91.5043 28.4649 90.203C28.0246 88.7265 26.8338 87.6855 25.623 86.8247C24.1771 85.7987 22.571 84.9378 21.1851 83.8318C20.5196 83.2962 20.4546 82.6906 20.6997 81.8999C20.9749 81.004 21.3902 80.1481 21.7454 79.2823C22.4609 77.5456 23.1814 75.8089 23.8969 74.0672C24.2421 73.2364 24.5823 72.4056 24.9276 71.5747C25.2478 70.804 25.7331 69.9482 25.563 69.0873C25.2728 67.6259 23.6817 67.3957 22.4459 67.3656C20.5496 67.3206 18.6534 67.3156 16.7571 67.3356C12.4693 67.3856 8.18643 67.5958 3.91358 67.9612C2.95795 68.0413 2.94794 69.5478 3.91358 69.4627L3.91859 69.4677Z" fill="black"/>
<path d="M30.9615 67.5909L31.9822 100.028C31.9922 100.373 32.0323 100.768 32.3174 100.959C32.5426 101.109 32.8428 101.069 33.108 101.024C34.5339 100.783 35.9599 100.543 37.3858 100.308C37.8461 100.233 38.3365 100.138 38.6717 99.8124C39.127 99.367 39.132 98.6513 39.112 98.0106C38.7868 89.4222 38.1713 80.8438 37.2657 72.3005C37.0906 70.6338 36.8705 68.8821 35.8848 67.5258C34.8992 66.1695 32.8778 65.4137 31.4969 66.3596" fill="#75C1E1"/>
<path d="M30.2111 67.5908C30.3912 73.3715 30.5763 79.1521 30.7564 84.9328L31.0266 93.5412L31.1617 97.9055C31.1817 98.6112 31.1917 99.3219 31.2267 100.028C31.2568 100.568 31.3418 101.124 31.7821 101.489C32.2224 101.854 32.7678 101.829 33.3031 101.749C34.0186 101.639 34.7291 101.509 35.4445 101.389C36.16 101.269 36.8705 101.159 37.586 101.029C38.1163 100.933 38.6467 100.803 39.072 100.448C39.9475 99.7123 39.8825 98.5461 39.8425 97.5101C39.7874 96.0637 39.7224 94.6223 39.6473 93.1759C39.3571 87.4403 38.9369 81.7097 38.3865 75.9941C38.2414 74.4926 38.1063 72.9861 37.9212 71.4896C37.7611 70.1934 37.5259 68.8971 36.9005 67.736C35.8348 65.759 33.198 64.3877 31.1167 65.709C30.3011 66.2245 31.0566 67.5258 31.8722 67.0053C33.5483 65.9442 35.3295 67.6159 35.8948 69.1273C36.2601 70.1083 36.3902 71.1593 36.5052 72.1953C36.6403 73.4616 36.7654 74.7278 36.8905 75.9941C37.3808 81.0941 37.7661 86.2041 38.0513 91.3191C38.1213 92.5553 38.1814 93.7965 38.2414 95.0327C38.2964 96.2089 38.4666 97.4551 38.3665 98.6262C38.3265 99.0967 38.1764 99.3419 37.7161 99.472C37.1657 99.6322 36.5703 99.6823 36.0049 99.7773C35.4095 99.8774 34.8141 99.9775 34.2237 100.078C33.9485 100.123 33.6684 100.173 33.3932 100.218C33.2431 100.243 33.068 100.258 32.9179 100.298L32.7077 100.313C32.7828 100.378 32.8028 100.363 32.7678 100.278C32.6427 99.7373 32.7127 99.0867 32.6977 98.5311L32.6327 96.5342L32.5126 92.6654L32.2724 85.0579C32.0873 79.2372 31.9072 73.4165 31.7221 67.5908C31.692 66.6249 30.191 66.6249 30.2211 67.5908H30.2111Z" fill="black"/>
<path d="M47.4275 65.1535C51.8955 65.1434 56.3634 65.1384 60.8314 65.1284C61.3468 65.1284 61.9021 65.1384 62.3124 65.4537C62.7177 65.7641 62.8778 66.2996 63.0129 66.7951C63.7133 69.4126 64.1186 72.7509 61.9221 74.3425C61.1816 74.878 60.261 75.0982 59.3704 75.3084C57.9145 75.6487 56.4585 75.9841 55.0075 76.3244C53.0262 76.7848 50.5746 77.8259 50.6697 79.8579C50.7447 81.4594 52.5459 82.4854 54.147 82.4404C55.748 82.3953 57.224 81.6246 58.75 81.1341C60.276 80.6436 62.0923 80.4635 63.3481 81.4544C64.5339 82.3903 64.8291 84.042 64.9842 85.5434C65.0292 85.9839 65.0642 86.4443 64.8791 86.8447C64.5489 87.5654 63.6583 87.8006 62.8778 87.9308C59.1903 88.5664 55.4278 88.8066 51.6903 88.6465C49.5239 88.5514 47.0623 88.156 45.8715 86.3392C45.3311 85.5134 45.141 84.5074 44.9709 83.5315C44.7307 82.1851 44.4905 80.8438 44.2504 79.4975C44.1353 78.8469 44.0202 78.1812 44.1353 77.5306C44.3755 76.2143 45.5512 75.2383 46.8121 74.7779C48.0729 74.3174 49.4288 74.2524 50.7547 74.0472C51.7053 73.902 52.706 73.6468 53.3715 72.9511C54.0369 72.2554 54.197 70.9992 53.4615 70.3736C52.9061 69.9031 52.0956 69.9532 51.3701 70.0232C49.759 70.1884 48.153 70.3535 46.5419 70.5187C45.5262 70.6238 44.4655 70.7189 43.5199 70.3435C42.5743 69.9682 41.7887 68.9622 42.0289 67.9712C42.4242 66.3346 44.7507 66.3596 46.3818 66.77" fill="#FD9DC3"/>
<path d="M47.4275 65.9042C49.7841 65.9042 52.1456 65.8942 54.5022 65.8892H57.9795C59.0803 65.8792 60.231 65.7791 61.3217 65.8892C62.2374 65.9793 62.3074 67.0003 62.4775 67.741C62.6676 68.5668 62.8027 69.4076 62.8177 70.2585C62.8478 71.86 62.3825 73.4316 60.8014 74.1072C59.8358 74.5226 58.735 74.6778 57.7143 74.913C56.6186 75.1683 55.5079 75.3985 54.4172 75.6838C52.9912 76.0641 51.4252 76.6847 50.5196 77.9159C49.614 79.1472 49.7841 80.9739 50.9749 82.03C52.3308 83.2312 54.147 83.3563 55.8381 82.9158C57.6793 82.4354 59.4605 81.2943 61.4268 81.4844C63.3931 81.6746 63.9935 83.5415 64.1937 85.2581C64.2437 85.6735 64.3888 86.2942 64.0986 86.6495C63.8634 86.9398 63.4382 87.0299 63.0929 87.11C61.9922 87.3652 60.8464 87.4853 59.7257 87.6105C57.4592 87.8607 55.1777 87.9658 52.9011 87.9208C51.195 87.8857 49.2837 87.8807 47.7477 87.0349C45.9015 86.0239 45.7864 83.8818 45.4512 82.015C45.2561 80.9239 45.0159 79.8278 44.8708 78.7318C44.7407 77.7308 44.9759 76.905 45.7464 76.2293C47.2524 74.908 49.4739 75.0481 51.3251 74.6928C52.9662 74.3775 54.7274 73.3665 54.6873 71.4646C54.6723 70.6188 54.227 69.8531 53.4515 69.4877C52.6059 69.0873 51.6553 69.2375 50.7547 69.3275C49.629 69.4427 48.5032 69.5578 47.3725 69.6729C46.3518 69.778 45.2411 69.9932 44.2254 69.768C43.4949 69.6078 42.4492 68.9171 42.7794 68.0263C42.9695 67.5058 43.6 67.3506 44.0953 67.2955C44.7907 67.2205 45.4962 67.3206 46.1717 67.4857C47.1123 67.711 47.5126 66.2645 46.5719 66.0393C45.131 65.694 43.2397 65.5088 42.0289 66.5548C40.5479 67.8311 41.3335 70.0532 42.8845 70.869C43.8701 71.3896 45.0109 71.3996 46.0966 71.3045C47.2874 71.1994 48.4832 71.0642 49.674 70.9391C50.2694 70.8791 50.8598 70.814 51.4552 70.7589C51.8855 70.7189 52.4659 70.6238 52.8561 70.864C53.6566 71.3495 52.9462 72.4256 52.3858 72.7609C51.5202 73.2814 50.3945 73.3365 49.4138 73.4616C48.3031 73.6067 47.1974 73.7669 46.1667 74.2223C44.2754 75.0582 43.1196 76.7448 43.3798 78.8369C43.5299 80.038 43.7901 81.2292 44.0002 82.4204C44.2004 83.5415 44.3304 84.7176 44.7507 85.7837C45.4612 87.5904 47.0523 88.6164 48.8885 89.0419C50.9749 89.5273 53.2114 89.4723 55.3378 89.4122C57.8444 89.3471 60.3511 89.1019 62.8227 88.6815C63.6833 88.5364 64.6239 88.3312 65.2193 87.6405C65.9398 86.8097 65.7547 85.6886 65.6146 84.6926C65.3444 82.7857 64.5739 80.9139 62.6276 80.2232C60.6813 79.5325 58.5499 80.3934 56.6737 81.069C55.1426 81.6246 52.6009 82.2802 51.5903 80.4484C50.7097 78.8569 52.8261 77.7758 54.0169 77.3704C56.1483 76.6397 58.4298 76.4095 60.5863 75.7588C62.4425 75.2033 63.7884 73.912 64.1586 71.9751C64.4989 70.2184 64.1937 68.3816 63.7434 66.6699C63.5032 65.754 63.1229 64.8832 62.1673 64.5429C61.1566 64.1825 59.8858 64.3777 58.8301 64.3777C56.2634 64.3777 53.7017 64.3877 51.135 64.3927H47.4125C46.4469 64.4027 46.4469 65.9042 47.4125 65.8992L47.4275 65.9042Z" fill="black"/>
<path d="M68.9468 93.4211C62.3424 93.1409 55.738 92.8556 49.1336 92.5753C47.8678 92.5203 46.5319 92.4852 45.4212 93.0958C44.1253 93.8065 43.3948 95.4131 43.7 96.8595C44.0052 98.3059 45.3261 99.4771 46.7971 99.6022C48.5432 99.7573 50.6396 98.6963 51.8604 99.9525C52.3007 100.408 52.4709 101.054 52.5859 101.679C52.8411 103.066 52.9212 104.482 52.8111 105.888C52.681 107.6 52.3358 109.527 53.4165 110.863C55.0075 112.835 58.5049 111.654 59.6356 109.387C60.7664 107.12 60.3261 104.422 59.9909 101.909C59.9258 101.434 59.8808 100.908 60.151 100.513C60.4161 100.123 60.9215 99.9726 61.3918 99.9025C63.263 99.6372 65.1993 100.263 67.0456 99.8524C68.8918 99.442 70.4979 97.0747 69.182 95.7134" fill="#FD9DC3"/>
<path d="M68.9469 92.6704C62.2024 92.3801 55.4529 92.0198 48.7084 91.8045C47.3575 91.7595 45.8965 91.8346 44.7408 92.6304C43.7201 93.3361 43.0596 94.4722 42.9145 95.6984C42.6043 98.2609 44.8158 100.428 47.3275 100.363C48.4332 100.333 49.8842 99.7423 50.9449 100.208C51.5002 100.453 51.6804 101.044 51.8004 101.589C51.9756 102.38 52.0606 103.196 52.0906 104.002C52.1857 106.454 51.065 109.802 53.1864 111.704C54.8375 113.185 57.3441 112.645 58.9352 111.369C61.0566 109.672 61.2667 106.744 61.0266 104.232C60.9465 103.391 60.7964 102.555 60.7114 101.714C60.6864 101.464 60.6113 101.109 60.7814 100.893C60.9916 100.628 61.5219 100.618 61.8321 100.593C63.5633 100.453 65.2844 100.928 67.0156 100.608C69.3071 100.188 71.5736 97.2649 69.7074 95.1729C69.0619 94.4521 68.0012 95.5182 68.6467 96.2339C69.232 96.8895 68.7117 97.8154 68.1964 98.3359C67.3358 99.2068 66.185 99.2669 65.0192 99.2168C63.0179 99.1317 58.9152 98.396 59.2054 101.624C59.4255 104.062 60.181 106.839 58.9152 109.132C58.1497 110.513 55.9482 111.764 54.4372 110.783C53.5266 110.188 53.3865 109.021 53.4015 108.025C53.4265 106.719 53.6367 105.433 53.5966 104.122C53.5566 102.81 53.4766 101.359 52.9162 100.193C52.4309 99.1818 51.4802 98.6513 50.3845 98.5812C49.2888 98.5111 48.173 98.8865 47.0523 98.8615C45.9315 98.8364 44.9709 98.1357 44.5606 97.1448C44.1504 96.1538 44.4255 95.0327 45.116 94.277C46.0016 93.311 47.3725 93.271 48.5933 93.306C55.3778 93.4962 62.1573 93.8816 68.9368 94.1719C69.9025 94.2119 69.9025 92.7104 68.9368 92.6704H68.9469Z" fill="black"/>
<path d="M77.2524 72.0302L86.5386 70.9742C87.119 70.9091 87.7143 70.834 88.2097 70.5237C89.4205 69.758 89.3604 67.796 88.3548 66.775C87.3491 65.754 85.7681 65.5288 84.3421 65.709C82.9162 65.8892 81.5603 66.4097 80.1493 66.6649C78.9285 66.8852 77.6126 66.9202 76.5819 67.6059C75.5513 68.2915 75.0659 69.9832 76.0466 70.7489" fill="#F7D260"/>
<path d="M77.2524 72.7809C80.1843 72.4456 83.1163 72.1153 86.0482 71.7799C87.1339 71.6548 88.3347 71.5898 89.1203 70.7289C89.7657 70.0182 89.9558 69.0322 89.8057 68.1013C89.4355 65.8591 87.164 64.8632 85.0926 64.9032C83.7867 64.9282 82.5259 65.3136 81.27 65.6389C80.0942 65.9442 78.8834 66.0193 77.7077 66.3196C76.5319 66.6199 75.5212 67.2355 75.0309 68.3566C74.6006 69.3376 74.6556 70.5337 75.5062 71.2745C76.2317 71.9051 77.2974 70.849 76.5669 70.2134C76.0766 69.788 76.2367 69.1023 76.5869 68.6219C77.0572 67.9712 77.9378 67.776 78.6833 67.6409C79.6089 67.4707 80.5345 67.3706 81.4502 67.1404C82.4658 66.8851 83.4815 66.5448 84.5272 66.4347C85.9732 66.2846 88.0445 66.6249 88.3347 68.3516C88.4248 68.8971 88.3197 69.5478 87.8294 69.8781C87.4892 70.1083 87.0339 70.1634 86.6336 70.2134C86.0332 70.2885 85.4278 70.3485 84.8274 70.4186C82.3007 70.7039 79.779 70.9942 77.2524 71.2795C76.3017 71.3896 76.2917 72.891 77.2524 72.7809Z" fill="black"/>
<path d="M69.9225 78.8619C76.4368 77.5756 82.9562 76.2894 89.4705 75.0031C89.7857 74.938 90.1359 74.883 90.4161 75.0431C90.7614 75.2433 90.8664 75.6888 90.9315 76.0842C91.2267 77.8109 91.5168 79.5375 91.812 81.2642C91.8621 81.5645 91.9071 81.9049 91.727 82.1501C91.5419 82.4004 91.1916 82.4604 90.8814 82.4954C84.7724 83.1811 78.6683 83.8668 72.5592 84.5525C72.0039 84.6125 71.4285 84.6776 70.8981 84.4974C69.0719 83.8918 69.157 81.2993 69.6123 79.4274" fill="#F7D260"/>
<path d="M70.1226 79.5826C73.705 78.8769 77.2923 78.1662 80.8747 77.4605C82.6659 77.1052 84.4571 76.7548 86.2533 76.3995L88.9401 75.869C89.0952 75.8389 89.8907 75.5787 90.0458 75.6938C90.246 75.8439 90.251 76.5146 90.291 76.7498C90.4361 77.6157 90.5862 78.4765 90.7313 79.3424C90.7963 79.7327 90.8664 80.1281 90.9314 80.5185C90.9564 80.6637 91.2116 81.6046 91.1516 81.6746C90.9915 81.8698 90.1259 81.8198 89.8907 81.8498C89.4805 81.8949 89.0652 81.9449 88.6549 81.9899C87.7493 82.09 86.8387 82.1951 85.9331 82.2952C82.3007 82.7006 78.6683 83.111 75.0409 83.5164C74.0152 83.6316 72.9695 83.8067 71.9338 83.8518C71.3084 83.8768 70.758 83.7517 70.4278 83.1861C69.8274 82.1701 70.0876 80.7037 70.3427 79.6226C70.5629 78.6817 69.1169 78.2813 68.8968 79.2222C68.5966 80.5085 68.4014 81.9849 68.8367 83.2662C69.3421 84.7527 70.6079 85.4583 72.1489 85.3382C74.2703 85.1731 76.3917 84.8678 78.5082 84.6275C80.6246 84.3873 82.716 84.1571 84.8224 83.9168C86.9288 83.6766 89.0502 83.5064 91.1466 83.2011C93.373 82.8758 92.4174 80.3083 92.1622 78.8168C91.9921 77.8059 91.842 76.7899 91.6469 75.7889C91.4918 74.9881 91.0315 74.2774 90.1609 74.1973C89.2103 74.1072 88.1296 74.4976 87.1989 74.6828L84.0218 75.3084C79.2587 76.2493 74.4905 77.1902 69.7273 78.1262C68.7817 78.3113 69.182 79.7628 70.1276 79.5726L70.1226 79.5826Z" fill="black"/>
<path d="M81.8304 88.4513C80.2694 90.1279 78.6583 91.8997 78.0679 94.1168C77.4775 96.334 78.293 99.1017 80.4245 99.9275C82.1956 100.613 84.3271 99.6873 85.3678 98.0957C86.4084 96.5042 86.4935 94.4321 85.9882 92.5953C85.3978 90.4432 83.2263 88.2561 81.21 89.212" fill="#F7D260"/>
<path d="M81.3001 87.9208C79.5789 89.7726 77.6776 91.8396 77.2323 94.4271C76.8721 96.5042 77.4925 98.8915 79.2787 100.158C81.19 101.514 83.8417 100.878 85.3878 99.2619C87.1289 97.4401 87.3891 94.5623 86.6636 92.235C85.9381 89.9077 83.4865 87.4053 80.8297 88.5614C79.9442 88.9468 80.7097 90.243 81.5852 89.8577C83.2213 89.147 84.7574 91.239 85.1876 92.5553C85.763 94.317 85.718 96.6193 84.4321 98.0757C83.3614 99.2869 81.4201 99.9175 80.0292 98.8565C78.8084 97.9256 78.4281 96.1188 78.6983 94.6774C79.1286 92.4051 80.8348 90.6134 82.3508 88.9818C83.0062 88.2761 81.9505 87.2101 81.29 87.9208H81.3001Z" fill="black"/>
<path d="M96.9305 65.1484C97.0906 80.023 92.8728 94.5522 90.5962 109.257C90.5062 109.842 90.4511 110.533 90.8814 110.938C91.1816 111.219 91.6219 111.269 92.0322 111.309C93.4181 111.429 94.799 111.554 96.185 111.674C96.6553 111.714 97.1606 111.754 97.5809 111.529C98.4815 111.053 98.4615 109.777 98.3564 108.766C97.9461 104.847 98.1763 100.858 99.0319 97.0097C99.297 95.8235 99.6723 94.5673 100.628 93.8115C101.584 93.0558 103.275 93.1659 103.74 94.287C103.9 94.6774 103.89 95.1178 103.865 95.5432C103.68 98.381 102.894 101.139 102.304 103.921C101.999 105.363 101.759 106.919 102.344 108.271C102.929 109.622 104.671 110.568 105.931 109.802C106.927 109.197 107.182 107.885 107.327 106.724C108.833 94.8075 109.394 82.7757 109.003 70.774C108.983 70.1533 108.933 69.4677 108.483 69.0423C107.778 68.3716 106.512 68.8371 106.027 69.6829C105.541 70.5287 105.591 71.5647 105.626 72.5357C105.756 76.4845 105.321 80.4484 104.335 84.2722C104.035 85.4333 103.42 86.8097 102.219 86.8747C100.463 86.9698 100.088 84.4323 100.373 82.6956C100.793 80.1181 101.213 77.5456 101.634 74.9681C101.989 72.7959 102.324 70.4787 101.418 68.4767C100.513 66.4747 97.8311 65.1284 96.0349 66.3997" fill="#F7D260"/>
<path d="M96.1799 65.1485C96.305 78.8218 92.7777 92.1199 90.4561 105.503C90.321 106.294 90.1859 107.08 90.0609 107.87C89.9408 108.616 89.7356 109.407 89.7957 110.163C89.9258 111.839 91.4068 111.999 92.7677 112.119C93.5832 112.19 94.3937 112.265 95.2093 112.335C96.0248 112.405 96.8354 112.57 97.5959 112.335C98.8467 111.939 99.1869 110.603 99.1519 109.432C99.1069 107.8 98.8867 106.189 98.9067 104.552C98.9268 102.81 99.0669 101.069 99.342 99.3469C99.5672 97.9456 99.7423 96.2639 100.528 95.0427C100.963 94.3671 102.269 93.5413 102.954 94.4221C103.345 94.9226 103.09 95.9186 103.024 96.4891C102.929 97.365 102.774 98.2309 102.599 99.0917C102.274 100.713 101.854 102.32 101.528 103.941C101.203 105.563 101.003 107.17 101.689 108.651C102.174 109.702 103.215 110.563 104.365 110.773C105.601 110.993 106.762 110.418 107.372 109.327C108.053 108.116 108.088 106.604 108.248 105.263C108.663 101.789 108.998 98.3109 109.254 94.8225C109.759 87.8907 109.949 80.9339 109.824 73.9871C109.809 73.1663 109.789 72.3405 109.764 71.5197C109.744 70.784 109.774 69.9882 109.499 69.2925C109.008 68.0413 107.643 67.6859 106.492 68.2615C105.191 68.9071 104.851 70.3536 104.841 71.6949C104.831 73.3515 104.901 74.9931 104.791 76.6447C104.681 78.2963 104.455 80.038 104.13 81.7147C103.975 82.5055 103.805 83.2962 103.595 84.072C103.445 84.6425 103.255 85.2481 102.869 85.7086C102.144 86.5794 101.403 85.9088 101.173 85.063C100.833 83.8267 101.133 82.5555 101.333 81.3243C101.614 79.5926 101.899 77.8609 102.179 76.1342C102.434 74.5827 102.739 73.0162 102.729 71.4396C102.709 68.797 101.544 66.1895 98.8667 65.3486C97.781 65.0083 96.5902 65.1134 95.6346 65.749C94.834 66.2796 95.5845 67.5808 96.3901 67.0453C97.2907 66.4447 98.3414 66.6099 99.232 67.1504C100.318 67.8111 100.898 68.8921 101.118 70.1183C101.383 71.5747 101.153 73.1012 100.923 74.5477C100.663 76.1492 100.398 77.7508 100.138 79.3524C99.7823 81.5395 98.8167 84.5374 100.213 86.5744C100.803 87.4403 101.839 87.8407 102.854 87.4953C103.955 87.12 104.556 85.9839 104.896 84.9478C105.371 83.4964 105.631 81.9449 105.861 80.4384C106.107 78.8569 106.267 77.2653 106.337 75.6688C106.372 74.863 106.382 74.0572 106.372 73.2514C106.362 72.4906 106.272 71.7049 106.372 70.9441C106.447 70.3986 106.642 69.833 107.167 69.5778C107.753 69.2925 108.098 69.6028 108.193 70.2084C108.298 70.8691 108.253 71.5797 108.273 72.2454C108.298 73.1513 108.313 74.0522 108.328 74.9581C108.353 76.6047 108.358 78.2463 108.343 79.8929C108.318 83.2262 108.218 86.5544 108.048 89.8827C107.878 93.2109 107.633 96.5342 107.317 99.8474C107.162 101.484 106.987 103.121 106.797 104.752C106.652 105.978 106.692 107.625 105.981 108.696C105.271 109.767 104.02 109.287 103.35 108.491C102.409 107.37 102.704 105.633 102.969 104.327C103.285 102.78 103.675 101.254 103.995 99.7073C104.315 98.1608 104.641 96.6293 104.616 95.1028C104.596 93.9166 103.96 92.9207 102.769 92.6454C101.699 92.3951 100.568 92.7455 99.8023 93.5212C98.8467 94.4872 98.4915 95.8635 98.2163 97.1498C97.8761 98.7514 97.6409 100.373 97.5108 102.005C97.3807 103.636 97.3557 105.223 97.4408 106.829C97.4808 107.58 97.5659 108.331 97.6209 109.081C97.6559 109.557 97.716 110.188 97.4558 110.618C97.1256 111.164 96.21 110.913 95.6846 110.868C94.8691 110.798 94.0585 110.723 93.243 110.653C92.8077 110.613 91.5919 110.723 91.3267 110.298C91.1966 110.092 91.2817 109.662 91.3117 109.447C91.3667 109.011 91.4468 108.576 91.5168 108.141C93.5832 95.4131 96.9604 82.8508 97.5809 69.9231C97.6559 68.3266 97.6859 66.73 97.6709 65.1334C97.6609 64.1675 96.1599 64.1675 96.1699 65.1334L96.1799 65.1485Z" fill="black"/>
</g>
<defs>
<clipPath id="clip0_1492_2249">
<rect width="109.728" height="112.32" fill="white" transform="translate(0.136047 0.279915)"/>
</clipPath>
</defs>
</svg>
