<svg width="24" height="25" viewBox="0 0 24 25" fill="none" xmlns="http://www.w3.org/2000/svg">
<path fill-rule="evenodd" clip-rule="evenodd" d="M6.69127 1.91182C6.87945 1.65308 7.18007 1.5 7.5 1.5H15.5C15.8199 1.5 16.1206 1.65308 16.3087 1.91183C15.492 2.50581 15.4503 2.53616 16.3087 1.91183L16.3111 1.91515L16.3149 1.92032L16.3262 1.93615C16.3354 1.94912 16.3478 1.96691 16.3633 1.98935C16.3943 2.0342 16.4372 2.09771 16.4897 2.17853C16.5946 2.34002 16.7381 2.57141 16.9006 2.86179C17.2243 3.44054 17.6291 4.26443 17.9503 5.24468C18.2612 6.19352 18.5 7.30803 18.5 8.5C18.5 9.48055 18.291 10.4215 17.9157 11.2765C16.9667 13.4386 14.9414 15.0725 12.5 15.4278V21.5H16.5C17.0523 21.5 17.5 21.9477 17.5 22.5C17.5 23.0523 17.0523 23.5 16.5 23.5H6.5C5.94772 23.5 5.5 23.0523 5.5 22.5C5.5 21.9477 5.94772 21.5 6.5 21.5H10.5V15.4291C8.16484 15.095 6.20277 13.6085 5.20637 11.5675C4.75366 10.6401 4.5 9.59819 4.5 8.5C4.5 7.16745 4.79849 5.93075 5.16371 4.91241C5.48212 4.02465 5.85812 3.28378 6.15467 2.76397C6.30339 2.50327 6.43336 2.29602 6.52803 2.15134C6.5754 2.07894 6.61404 2.02205 6.64191 1.98179C6.65584 1.96165 6.66709 1.94566 6.6754 1.93396L6.68563 1.91963L6.68903 1.9149L6.6903 1.91316L6.69127 1.91182ZM8.04195 3.5C7.99596 3.5757 7.94553 3.66093 7.89186 3.75501C7.63808 4.19986 7.31658 4.83401 7.04629 5.58759M8.04195 3.5H14.958C15.0172 3.59743 15.0838 3.71065 15.1551 3.83818C15.4333 4.33544 15.7785 5.03956 16.0497 5.8674C16.2464 6.46767 16.4007 7.12236 16.466 7.8029C16.1494 7.89808 15.7403 8.00229 15.2815 8.07474C14.1864 8.24766 12.9685 8.21492 12.0145 7.64251C10.4685 6.71492 8.68638 6.74766 7.40654 6.94974C7.13101 6.99324 6.87128 7.04577 6.63283 7.10159C6.73139 6.56789 6.87755 6.0581 7.04629 5.58759M7.00363 10.6901C6.77768 10.2272 6.621 9.72393 6.54753 9.19304ZM6.54753 9.19304C6.86218 9.09896 7.26616 8.99668 7.71846 8.92526C8.81362 8.75234 10.0315 8.78508 10.9855 9.35749C12.5315 10.2851 14.3136 10.2523 15.5935 10.0503C15.8395 10.0114 16.073 9.96536 16.29 9.91619C16.2324 10.1062 16.1637 10.2919 16.0843 10.4726C15.3077 12.242 13.5388 13.5 11.5 13.5C9.5258 13.5 7.8169 12.3559 7.00363 10.6901" fill="url(#paint0_linear_87_9123)"/>
<defs>
<linearGradient id="paint0_linear_87_9123" x1="11.5" y1="1.5" x2="11.5" y2="23.5" gradientUnits="userSpaceOnUse">
<stop stop-color="#4880B5"/>
<stop offset="1" stop-color="#1F384F"/>
</linearGradient>
</defs>
</svg>
