<svg width="24" height="24" viewBox="0 0 24 24" fill="none" xmlns="http://www.w3.org/2000/svg">
<path d="M13.5 13C14.0523 13 14.5 13.4477 14.5 14C14.5 14.5128 14.114 14.9355 13.6166 14.9933L13.5 15L8.87262 15.0008L7.91796 15.0098L7.35034 15.0248L7.03268 15.0397L6.75746 15.059L6.51939 15.0833C6.48251 15.0878 6.44697 15.0925 6.41264 15.0975L6.22039 15.1301C6.1307 15.1479 6.04998 15.168 5.97527 15.1907L5.83299 15.2396L5.70144 15.2959C5.68012 15.3059 5.65902 15.3163 5.63804 15.327C5.07356 15.6146 4.61461 16.0735 4.32698 16.638L4.26682 16.7662C4.25744 16.7881 4.24837 16.8103 4.23962 16.833L4.1907 16.9753C4.17557 17.0251 4.16158 17.0776 4.14867 17.1336L4.11304 17.3132C4.10761 17.3452 4.10242 17.3783 4.09747 17.4126L4.07054 17.6341L4.04879 17.8901L4.03174 18.1859L4.01891 18.5267L4.00394 19.3648L4 20H13.5C14.0128 20 14.4355 20.386 14.4933 20.8834L14.5 21C14.5 21.5128 14.114 21.9355 13.6166 21.9933L13.5 22H3C2.48716 22 2.06449 21.614 2.00673 21.1166L2 21L2.00095 19.8109L2.01076 18.8085L2.02791 18.1911L2.04536 17.8342L2.06848 17.5151L2.098 17.229C2.11448 17.0934 2.13364 16.9682 2.15587 16.8507L2.20457 16.6251C2.21341 16.589 2.22263 16.5534 2.23223 16.5185L2.29463 16.3143C2.30584 16.2811 2.31748 16.2482 2.32955 16.2155L2.40727 16.0215L2.49613 15.8281L2.54497 15.7301C3.02433 14.7892 3.78925 14.0243 4.73008 13.5449L4.94053 13.4432C5.39232 13.2375 5.83162 13.1257 6.54548 13.0659L6.89549 13.0418L7.29076 13.0242L7.98225 13.0079L8.81086 13.001L13.5 13ZM18.5 14C19.0128 14 19.4355 14.386 19.4933 14.8834L19.5 15V17.584L19.7929 17.2929C20.1534 16.9324 20.7206 16.9047 21.1129 17.2097L21.2071 17.2929C21.5676 17.6534 21.5953 18.2206 21.2903 18.6129L21.2071 18.7071L19.2071 20.7071C19.1786 20.7356 19.1485 20.7623 19.1168 20.7872L19.2071 20.7071C19.1717 20.7425 19.1343 20.7747 19.0953 20.8037C19.0711 20.8215 19.0463 20.8383 19.0207 20.8539C19.0086 20.8614 18.9964 20.8685 18.9841 20.8753C18.9643 20.8862 18.9439 20.8966 18.9231 20.9063C18.9061 20.9143 18.8888 20.9218 18.8713 20.9288C18.8516 20.9367 18.8318 20.9439 18.8117 20.9505C18.7969 20.9553 18.7815 20.9599 18.766 20.9642C18.7444 20.9702 18.7227 20.9754 18.7008 20.9798C18.6834 20.9833 18.6659 20.9864 18.6485 20.989C18.6281 20.9921 18.6071 20.9946 18.5858 20.9964C18.5679 20.9979 18.5506 20.9989 18.5332 20.9995C18.5224 20.9998 18.5112 21 18.5 21L18.4677 20.9995C18.4497 20.9989 18.4317 20.9978 18.4138 20.9963L18.5 21C18.4494 21 18.3996 20.9962 18.351 20.989C18.3341 20.9864 18.3166 20.9833 18.2993 20.9798C18.2773 20.9754 18.2556 20.9702 18.2342 20.9643C18.2185 20.9599 18.2031 20.9553 18.1879 20.9503C18.1682 20.9439 18.1484 20.9367 18.1289 20.9289C18.1112 20.9218 18.0939 20.9143 18.0768 20.9063C18.0561 20.8966 18.0357 20.8862 18.0157 20.8751C18.0036 20.8685 17.9914 20.8614 17.9793 20.854C17.9537 20.8383 17.9289 20.8215 17.9048 20.8037C17.8988 20.7993 17.8929 20.7948 17.8871 20.7903C17.8515 20.7623 17.8214 20.7356 17.7929 20.7071L15.7929 18.7071C15.4024 18.3166 15.4024 17.6834 15.7929 17.2929C16.1534 16.9324 16.7206 16.9047 17.1129 17.2097L17.2071 17.2929L17.5 17.585V15C17.5 14.4477 17.9477 14 18.5 14ZM9.5 2C11.9853 2 14 4.01472 14 6.5C14 8.98528 11.9853 11 9.5 11C7.01472 11 5 8.98528 5 6.5C5 4.01472 7.01472 2 9.5 2ZM9.5 4C8.11929 4 7 5.11929 7 6.5C7 7.88072 8.11928 9 9.5 9C10.8807 9 12 7.88072 12 6.5C12 5.11929 10.8807 4 9.5 4Z" fill="url(#paint0_linear_87_10827)"/>
<defs>
<linearGradient id="paint0_linear_87_10827" x1="11.75" y1="2" x2="11.75" y2="22" gradientUnits="userSpaceOnUse">
<stop stop-color="#4880B5"/>
<stop offset="1" stop-color="#1F384F"/>
</linearGradient>
</defs>
</svg>
