<svg width="512" height="512" viewBox="0 0 512 512" fill="none" xmlns="http://www.w3.org/2000/svg">
<path d="M512 310.429C512 182.429 448 91 365.714 91C301.714 91 256 164.143 256 164.143C219.429 219 219.429 319.571 274.286 209.857C274.286 209.857 320 136.714 365.714 136.714C429.714 136.714 463.439 246.429 463.439 310.429C463.439 328.714 457.143 365.286 420.571 365.286V420.143C457.143 420.143 512 392.714 512 310.429Z" fill="url(#paint0_radial_243_282)"/>
<path d="M146.286 91V145.857C87.7714 153.171 54.8571 246.429 54.8571 310.429C54.8571 328.714 64 365.286 91.4286 365.286C137.143 365.286 189.709 264.348 237.714 190.522C263.198 151.33 288.564 184.981 269.222 219C223.392 299.606 177.5 420.143 91.4286 420.143C54.8571 420.143 0 392.714 0 310.429C0 145.857 100.571 91 146.286 91Z" fill="url(#paint1_radial_243_282)"/>
<path d="M420.571 365.286C356.571 365.286 283.429 91 146.286 91C146.286 109.286 146.286 127.571 146.286 145.857C256 145.857 301.714 420.143 420.571 420.143V365.286Z" fill="#0768E1"/>
<defs>
<radialGradient id="paint0_radial_243_282" cx="0" cy="0" r="1" gradientUnits="userSpaceOnUse" gradientTransform="translate(420.571 401.857) rotate(-101.31) scale(326.337 253.818)">
<stop stop-color="#0768E1"/>
<stop offset="1" stop-color="#0082FB"/>
</radialGradient>
<radialGradient id="paint1_radial_243_282" cx="0" cy="0" r="1" gradientUnits="userSpaceOnUse" gradientTransform="translate(146.286 127.571) rotate(154.537) scale(212.657 111.537)">
<stop stop-color="#0768E1"/>
<stop offset="1" stop-color="#0082FB"/>
</radialGradient>
</defs>
</svg>
