<svg width="24" height="24" viewBox="0 0 24 24" fill="none" xmlns="http://www.w3.org/2000/svg">
<path fill-rule="evenodd" clip-rule="evenodd" d="M11 2C11 1.44772 11.4477 1 12 1C14.9797 1 17.682 2.18506 19.6621 4.10771V3.33782C19.6621 2.78554 20.1099 2.33782 20.6621 2.33782C21.2144 2.33782 21.6621 2.78554 21.6621 3.33782V7C21.6621 7.55228 21.2144 8 20.6621 8H17C16.4477 8 16 7.55228 16 7C16 6.44772 16.4477 6 17 6H18.7085C17.0597 4.15769 14.6646 3 12 3C11.4477 3 11 2.55228 11 2ZM2.33782 3.33789C2.33782 2.78561 2.78554 2.33789 3.33782 2.33789H7C7.55228 2.33789 8 2.78561 8 3.33789V7.00005C8 7.55233 7.55228 8.00005 7 8.00005C6.44772 8.00005 6 7.55233 6 7.00005V5.29159C4.15769 6.94039 3 9.3354 3 12C3 12.5523 2.55228 13 2 13C1.44772 13 1 12.5523 1 12C1 9.02031 2.18506 6.318 4.10772 4.33789H3.33782C2.78554 4.33789 2.33782 3.89017 2.33782 3.33789ZM22 11C22.5523 11 23 11.4477 23 12C23 14.9797 21.8149 17.6821 19.8923 19.6622H20.6622C21.2145 19.6622 21.6622 20.1099 21.6622 20.6622C21.6622 21.2145 21.2145 21.6622 20.6622 21.6622H17C16.4477 21.6622 16 21.2145 16 20.6622V17C16 16.4477 16.4477 16 17 16C17.5523 16 18 16.4477 18 17V18.7085C19.8423 17.0597 21 14.6647 21 12C21 11.4477 21.4477 11 22 11ZM2.33782 17C2.33782 16.4477 2.78554 16 3.33782 16H7C7.55228 16 8 16.4477 8 17C8 17.5523 7.55228 18 7 18H5.29151C6.94031 19.8423 9.33535 21 12 21C12.5523 21 13 21.4477 13 22C13 22.5523 12.5523 23 12 23C9.02027 23 6.31794 21.8149 4.33782 19.8923V20.6622C4.33782 21.2145 3.8901 21.6622 3.33782 21.6622C2.78554 21.6622 2.33782 21.2145 2.33782 20.6622V17Z" fill="black" fill-opacity="0.85"/>
</svg>
