<svg width="512" height="512" viewBox="0 0 512 512" fill="none" xmlns="http://www.w3.org/2000/svg">
<path fill-rule="evenodd" clip-rule="evenodd" d="M0.210724 0V97.7159C228.365 97.8664 413.802 283.635 414.013 512H512C511.94 370.875 454.563 242.995 361.844 150.216C269.125 57.4675 141.306 0.060207 0.210724 0ZM0.060207 174.119V271.865C63.8495 271.895 124.267 296.971 169.392 342.216C214.608 387.341 239.533 447.789 239.654 511.819V512H337.881C337.791 418.86 299.921 334.51 238.721 273.279C177.52 212.049 93.1703 174.149 0.060207 174.119ZM19.9285 491.53V491.5C19.8984 491.5 19.8984 491.5 19.8984 491.5L19.9285 491.53ZM116.019 395.77C128.452 408.173 136.008 424.971 136.038 443.695C136.008 462.359 128.452 479.187 116.079 491.5L116.019 491.53C103.676 503.842 86.7582 511.398 67.9737 511.398C49.159 511.398 32.301 503.812 19.9285 491.5C7.61618 479.187 0 462.389 0 443.695C0 424.971 7.61618 408.143 19.9285 395.77C32.301 383.458 49.159 375.842 67.9737 375.842C86.7582 375.842 103.676 383.458 116.019 395.77Z" fill="#F8991D"/>
</svg>
