<svg width="48" height="34" viewBox="0 0 48 34" fill="none" xmlns="http://www.w3.org/2000/svg">
<path fill-rule="evenodd" clip-rule="evenodd" d="M42.7533 1.00279C44.8186 1.55476 46.4448 3.18143 46.9968 5.24628C48 8.98995 48 16.7997 48 16.7997C48 16.7997 48 24.6099 46.9968 28.3531C46.4448 30.418 44.8186 32.045 42.7533 32.5966C39.0101 33.5998 23.9998 33.5998 23.9998 33.5998C23.9998 33.5998 8.98995 33.5998 5.24667 32.5966C3.18143 32.045 1.55515 30.418 1.00319 28.3531C0 24.6099 0 16.7997 0 16.7997C0 16.7997 0 8.98995 1.00319 5.24628C1.55515 3.18143 3.18143 1.55476 5.24667 1.00279C8.98995 0 23.9998 0 23.9998 0C23.9998 0 39.0101 0 42.7533 1.00279ZM31.6701 16.8001L19.2 23.9998V9.59961L31.6701 16.8001Z" fill="#FF0000"/>
</svg>
